<svg width="800px" height="800px" viewBox="0 0 32 32" fill="none" xmlns="http://www.w3.org/2000/svg">
    <path d="M28.8 14.4C27.9583 14.4 27.15 14.7333 26.5333 15.3C25.9667 14.7833 25.2 14.4667 24.4 14.4C24.0667 14.4 23.75 14.4667 23.45 14.5667C23.4 14.0833 23.25 13.6333 23 13.2C23.6167 12.3833 24 11.3667 24 10.25C24 7.65 21.9 5.55 19.3 5.55C17.8167 5.55 16.4833 6.25 15.6333 7.3C14.7833 6.25 13.45 5.55 11.9667 5.55C9.36667 5.55 7.26667 7.65 7.26667 10.25C7.26667 11.3667 7.65 12.3833 8.26667 13.2C8.01667 13.6333 7.86667 14.0833 7.81667 14.5667C7.51667 14.4667 7.2 14.4 6.86667 14.4C6.06667 14.4 5.3 14.7833 4.73333 15.3C4.11667 14.7333 3.30833 14.4 2.46667 14.4C0.9 14.4 0 15.6833 0 17.25C0 18.8333 1.28333 20.1167 2.86667 20.1167C3.53333 20.1167 4.15 19.8833 4.66667 19.5C5.1 19.95 5.65 20.2833 6.28333 20.45C6.11667 20.7167 6 21.0167 6 21.35C6 22.2667 6.73333 23 7.65 23C8.08333 23 8.48333 22.8333 8.78333 22.5667C9.16667 23.3667 9.96667 23.95 10.9167 23.95C11.8 23.95 12.5667 23.4167 12.9667 22.65C13.3833 23.1 13.9667 23.3833 14.6167 23.3833C15.7167 23.3833 16.65 22.6 16.8667 21.5667C17 21.5833 17.1333 21.6 17.2667 21.6C17.4 21.6 17.5333 21.5833 17.6667 21.5667C17.8833 22.6 18.8167 23.3833 19.9167 23.3833C20.5667 23.3833 21.15 23.1 21.5667 22.65C21.9667 23.4167 22.7333 23.95 23.6167 23.95C24.5667 23.95 25.3667 23.3667 25.75 22.5667C26.05 22.8333 26.45 23 26.8833 23C27.8 23 28.5333 22.2667 28.5333 21.35C28.5333 21.0167 28.4167 20.7167 28.25 20.45C28.8833 20.2833 29.4333 19.95 29.8667 19.5C30.3833 19.8833 30.9917 20.1167 31.6667 20.1167C33.25 20.1167 34.5333 18.8333 34.5333 17.25C34.5333 15.6833 33.3667 14.4 31.8 14.4H28.8Z" stroke="#1a7b6e" stroke-width="2" stroke-linecap="round" stroke-linejoin="round"/>
</svg>